PathFileType	4	(X/Y/Z)	21_1_42_p0_0-353_filt_butterworth.trc
DataRate	CameraRate	NumFrames	NumMarkers	Units	OrigDataRate	OrigDataStartFrame	OrigNumFrames
55.0	55.0	7	27	m	55.0	264	353
Frame#	Time	RHip			RKnee			RAnkle			RBigToe			RSmallToe			RHeel			LHip			LKnee			LAnkle			LBigToe			LSmallToe			LHeel			Neck			Head			Nose			RShoulder			RElbow			RWrist			RThumb			RIndex			RPinky			LShoulder			LElbow			LWrist			LThumb			LIndex			LPinky			
		X1	Y1	Z1	X2	Y2	Z2	X3	Y3	Z3	X4	Y4	Z4	X5	Y5	Z5	X6	Y6	Z6	X7	Y7	Z7	X8	Y8	Z8	X9	Y9	Z9	X10	Y10	Z10	X11	Y11	Z11	X12	Y12	Z12	X13	Y13	Z13	X14	Y14	Z14	X15	Y15	Z15	X16	Y16	Z16	X17	Y17	Z17	X18	Y18	Z18	X19	Y19	Z19	X20	Y20	Z20	X21	Y21	Z21	X22	Y22	Z22	X23	Y23	Z23	X24	Y24	Z24	X25	Y25	Z25	X26	Y26	Z26	X27	Y27	Z27	
264	4.8	0.30377183100923444	0.4666795353999478	1.0248996005156343	0.2861635483393516	0.5267500751933288	1.5090242630665727	0.2728074624808659	0.6955818265117016	1.9831875876817586	0.2784422490764057	0.4758746552293386	2.0115459706348475	0.3428140735959878	0.5063742010566025	2.0035462194565437	0.25778355524133456	0.7262006331813544	2.0142890847234787	0.09876958415484278	0.4987304000142468	1.043195481798338	0.09024030113871986	0.569684839224779	1.5341496398345846	0.11320586148966995	0.6301761370106127	1.9482311436492517	0.10774099025241812	0.41719375534267084	1.9748534441994265	0.052016423394708376	0.4924640832656057	1.9991602930249233	0.1365004404071418	0.7003064550929226	2.0115992233411477	0.1813190369492328	0.46204691543861537	0.5149469759738611	0.16202046694806624	0.4273824803727311	0.2683968537473946	0.18844391860578508	0.34918446625384086	0.40231965483745896	0.3550056732176745	0.46562647684342084	0.6077882656185977	0.3995007601167956	0.4933217585089021	0.8870813813422372	0.4360110115062183	0.38119305838165596	1.0934480600800731	0.40363594715218676	0.2825820168924743	1.168600196326938	0.42347845268193834	0.3159031350540841	1.1845083648032886	0.4451041888311368	0.38017041897515985	1.2132420941226296	0.05503877276997636	0.4384573959940715	0.625950026388839	-0.0005850293851170715	0.5004585309589024	0.9127658365423904	-0.00249075816041389	0.3985689329422287	1.149326830133175	0.029950996848197336	0.3886575381840872	1.250645370164326	0.015127993196788711	0.34330973730440173	1.2600288648076525	-0.029912700456461896	0.42212959719680043	1.2732226223186902
265	4.818181818181818	0.3044882410145763	0.4678884432356128	1.0251660618378284	0.28764915103632577	0.5302767563798074	1.510527745054209	0.2726700888623116	0.6951637269420625	1.9831280660434538	0.2789330001011697	0.47921604049517863	2.0148336312518396	0.3431867225865564	0.5093865169892252	2.005314432099886	0.2578754504190686	0.7293082325009153	2.014244204884385	0.09753151782199834	0.4951901379300422	1.0414734976248883	0.09032226866451676	0.5696752200653143	1.5341268099511414	0.11270903282933017	0.6290560585533433	1.9442598441679888	0.10811001525218614	0.41981101168804374	1.975395964915714	0.0513084252925817	0.49562558727765166	2.0006387975673436	0.136078370874889	0.6993740365244595	2.0073417424151376	0.18127997074921026	0.4624524107546941	0.5127278316980524	0.16201971081835573	0.42742552007411716	0.26784706137794595	0.18708468856740001	0.3523621822934417	0.39982529726324423	0.3549929208501874	0.46560439276600046	0.6078754687563132	0.4004192267023209	0.49641207211597826	0.8876727226407861	0.4371842875112966	0.38462074191569007	1.0960140868426393	0.40559610633099835	0.28606621949579836	1.168983152112211	0.42608245802516714	0.317501969339386	1.186521497854349	0.44509738663320253	0.37967105111949856	1.2135193213122433	0.053745806984018256	0.4371817390559054	0.6259954252858541	0.0016687956442381403	0.4946452018493755	0.91134938144194	-0.002299873662527921	0.40252082988868176	1.151811241360262	0.029936494966105467	0.38983002109396947	1.2516856380790071	0.015065409142496464	0.3428033478239183	1.2598887324180694	-0.02974255376555795	0.4224123393995396	1.272789728543408
266	4.836363636363636	0.30677281873956835	0.46896626144871595	1.026785468975208	0.2891600155721452	0.5348568987432305	1.5110987309116504	0.27250878631606845	0.6949086210357543	1.9831159821813036	0.27993255711394577	0.48367584536167074	2.017802832317334	0.3432596314305623	0.5135500263725522	2.0077201912877873	0.25860302930459556	0.7307566529023524	2.0133843147098687	0.09742850519572284	0.49073500812309523	1.0410904233582121	0.09041338903716045	0.5696942481285012	1.5341294034204673	0.11136388374599374	0.6290375868520295	1.942976406132544	0.10875837701934252	0.42403716668344216	1.9775042468507036	0.049465185384467265	0.4959460679292336	2.000609955631852	0.1357207747745646	0.6990273563710935	2.0046115706023864	0.18120331549656737	0.462553017327483	0.5116274319457538	0.1620175642053033	0.4274362823308969	0.26743339611750727	0.1853422296270466	0.356789586236856	0.39588846745576944	0.3549704009003144	0.46556837799077766	0.6078739326905336	0.4005781629307392	0.49770777591051174	0.8878897915108361	0.4387259942465584	0.38890205966245195	1.0983172373133239	0.40794243753447734	0.2901042897965516	1.1698736766964457	0.42868017487649906	0.31873104722020984	1.1889154086595168	0.4449476780202283	0.3793128091969033	1.2134355370351886	0.05344725354388696	0.4372040877333556	0.6259125981201104	0.004385571645921882	0.4882311008303747	0.9109439745075976	-0.001431863598898526	0.4047571393639679	1.1549075232904416	0.029779721604768508	0.3894078770789605	1.2519768326951732	0.015035019437678057	0.3420310353074739	1.2596281096393398	-0.029594272206044756	0.42244143880984963	1.272557247112346
267	4.854545454545455	0.3100619300514081	0.4664000921431488	1.0285805200566616	0.28993685060230684	0.5388374841936223	1.5114171559397331	0.27265365612283177	0.6958008405508057	1.9831421391991484	0.28076855003523477	0.48699958240429164	2.0195604658445245	0.3432444486949453	0.5172541804771857	2.0098064534555187	0.2598425332960001	0.7314777222915562	2.0127957026421313	0.09944227675053334	0.4842758944636919	1.0409776680255067	0.09047966205512757	0.569708662561561	1.5341558744684292	0.1098176449507308	0.6296042353243295	1.9435074889412867	0.10930393048432623	0.42715492198886174	1.9793388244845733	0.04873349094720697	0.4949160910432826	2.000503477500005	0.13555988062035038	0.6990029946108225	2.0033916084530334	0.1811423606240842	0.4625065521513456	0.5113874055821653	0.1620120811574518	0.4275259665490598	0.2672433362780284	0.18416308649386626	0.3599579230678037	0.3922105673331264	0.3549528867347327	0.46552073612078393	0.6078075381576193	0.40047737564710695	0.49774158623980014	0.8878304986464565	0.43986903546891676	0.3918558703685048	1.0995061402063269	0.41091588072658086	0.2965843416288198	1.172655128096664	0.4314932354582498	0.3246568121296365	1.19353280668174	0.4449785261563008	0.37963999003073556	1.2139296050881283	0.053607678250451485	0.43741807314815795	0.6258057639211073	0.0073172339402190045	0.4813458855702462	0.9104825007232107	0.00011451073145794295	0.400985432966232	1.1563231244563859	0.029743188848784987	0.38865776185939666	1.252201966043096	0.015098263988192875	0.3417499245173953	1.259857554307931	-0.029179921561197857	0.42127744943570034	1.2724498739619174
268	4.872727272727273	0.31258341111756666	0.4595908130604761	1.0298796689969507	0.29080065962096835	0.5428357800922454	1.5125493205822476	0.2735513377840804	0.6983115022222445	1.9830074579815282	0.28112090273922286	0.4882944872365849	2.020077647448415	0.34407774313116424	0.5179882290694116	2.010109461922122	0.2608951245520489	0.7321398894919279	2.013171160638642	0.10312972488880487	0.47527465789868095	1.039866323213383	0.09052047201694101	0.5696638124204281	1.534177316135258	0.10926660715898522	0.6300942915674312	1.944343396267925	0.10955293626560753	0.4279752931056743	1.9800432621856245	0.049398286311477975	0.49405528970295454	2.000832026169991	0.1355096631668729	0.6989701786755876	2.003043120611397	0.18111433773156285	0.4624615690677159	0.5114921164819148	0.16201415974002478	0.4277077985147882	0.26720089869503827	0.1838995986019961	0.3607554396712723	0.3907693307274697	0.3549473727994414	0.46534508830745835	0.6077118400969088	0.4011678439695	0.4964753862407686	0.8875008943144997	0.44028784309297087	0.39276851900186294	1.0997802290553786	0.4154306822933792	0.30613803132357215	1.1780768808914286	0.43529424645097986	0.3345673034881107	1.2007612148964746	0.44599314298758674	0.38201684210988385	1.2162036347991954	0.05377673719744423	0.4374344281080676	0.6257328620018573	0.010707617364497544	0.4730282641190372	0.9089973037593597	0.0017699293291626146	0.39261152579209774	1.1553521399698257	0.029950467915951247	0.38921408819416525	1.2533796736202971	0.0153407174130088	0.3430919867688822	1.261713812199272	-0.028676889495337525	0.418089460242455	1.273088710580562
269	4.890909090909091	0.31350852520857125	0.4531724123567756	1.0309169427446938	0.2927439640530735	0.5476279314310377	1.5145397461162204	0.27529695663837295	0.7015431857157683	1.9827358934537487	0.28115189806093793	0.48837857382193345	2.0200350582821667	0.3458355577871784	0.5151563375564409	2.0083661302737243	0.2611569048963392	0.7325067454386849	2.0139332748597463	0.10660552709904282	0.4666591259743439	1.0385301143313665	0.09056200577459972	0.5695419399546959	1.5341707475547226	0.11021454014452137	0.6302373660086555	1.9447687794492423	0.1096369101955231	0.42764923974519037	1.9805299885986294	0.05027424328504115	0.4936798551861557	2.0011546717425257	0.13541498088330847	0.6988854075061826	2.003349354478373	0.18110189175521313	0.46245449049823156	0.5116171248418826	0.16202882112350458	0.4279321497146879	0.2671083788477655	0.1839761232385949	0.36015093021389866	0.3913738970651297	0.3549427662243984	0.46487352396330156	0.6075889401475607	0.4034009047207414	0.4933191496176428	0.8867949006144832	0.4402612905365047	0.39260199881501834	1.099757571600852	0.42206610328506533	0.3157549906544486	1.1845551683418152	0.4398115303144601	0.34268346099908126	1.208251265113667	0.4485174285081369	0.3872191095881736	1.2201742254059456	0.05381772722691197	0.4372792175113153	0.6257205895122334	0.01458747157246179	0.4634378996851056	0.9067778411275489	0.0027638409082139806	0.3858006676635504	1.1537290074626632	0.030404663753392465	0.3923865249080233	1.255725514763229	0.015785077020591207	0.3468442867547293	1.2657927771118123	-0.0281751926155884	0.41397663048264205	1.2748911324103482
270	4.909090909090909	0.3137276776557486	0.4516640825205871	1.0316951752119121	0.29508308387972165	0.5516412010963294	1.5163015546990457	0.2774331192172601	0.7045088350522577	1.9829775391297102	0.28106899142548	0.48813487139385375	2.019942492483903	0.3473257597285751	0.5114978832122431	2.006235822444973	0.2607764075500159	0.732555425205129	2.0139467685444443	0.10833238333795708	0.46193330254208964	1.0387387698845234	0.090592840803825	0.5694122276806806	1.5341635041129904	0.11186204409725684	0.6300521733733832	1.944821768499262	0.10974939245649448	0.4275927117696572	1.9818634272147704	0.05071015994321477	0.493555596333283	2.0012651955498364	0.13533611846930635	0.6989361570264014	2.004262602214023	0.18108346213866588	0.4624782221523418	0.5116925677151323	0.1620427230256358	0.42813002774876724	0.2669036842187797	0.1835583770748416	0.35998199977662915	0.3924485171798822	0.35493151422301433	0.46415889874889216	0.607457527215634	0.4064509393335468	0.4890937983354997	0.8858851153736774	0.44014460259624977	0.39227965833921086	1.0996419196646534	0.4299749111719009	0.32040855307860366	1.1889764120962893	0.4440364679633795	0.34510192764099035	1.2129901268013372	0.4516231882965094	0.39327743811272714	1.2236045809765967	0.05374778763673703	0.43707510771943764	0.6257597136545605	0.01798351310597299	0.45521592714605746	0.9048588816012844	0.0030549135185894767	0.38333358042386406	1.1529014015876249	0.030962917551444966	0.39705445181043403	1.25826608803303	0.016278556614656818	0.35181623680828056	1.270867475920488	-0.027233197480501455	0.4113231645605198	1.2767974231552686
